<?xml version="1.0" encoding="UTF-8" standalone="no"?><!DOCTYPE svg PUBLIC "-//W3C//DTD SVG 1.1//EN" "http://www.w3.org/Graphics/SVG/1.1/DTD/svg11.dtd"><svg width="100%" height="100%" viewBox="0 0 672 557" version="1.1" xmlns="http://www.w3.org/2000/svg" xmlns:xlink="http://www.w3.org/1999/xlink" xml:space="preserve" xmlns:serif="http://www.serif.com/" style="fill-rule:evenodd;clip-rule:evenodd;stroke-linejoin:round;stroke-miterlimit:2;"><g><path d="M666.925,378.663c2.611,-0 4.73,2.19 4.576,4.794c-5.676,96.277 -85.561,172.552 -183.234,172.552c-46.234,-0 -88.548,-17.159 -120.828,-45.369c-2.102,-1.86 -4.158,-3.744 -6.169,-5.669c-1.648,-1.577 -1.811,-4.132 -0.48,-5.983c2.334,-3.241 4.56,-6.574 6.701,-9.936c7.762,-12.181 14.296,-25.155 19.509,-38.801c1.253,-3.281 5.562,-3.91 7.784,-1.195c22.11,27.026 55.762,44.272 93.483,44.272c63.226,0 115.112,-48.58 120.433,-110.429c0.205,-2.382 2.144,-4.236 4.537,-4.236l53.688,-0Z" style="fill:#8f7ac6;fill-rule:nonzero;"/><path d="M652.338,299.133l-147.916,99.987c-2.089,1.414 -4.928,0.865 -6.338,-1.224l-28.648,-42.385c-1.41,-2.089 -0.861,-4.929 1.227,-6.339l93.535,-63.18c2.553,-1.723 2.696,-5.418 0.31,-7.36c-20.814,-16.956 -47.386,-27.11 -76.242,-27.11c-40.786,-0 -76.784,20.164 -98.679,51.071c-12.422,17.465 -20.315,38.39 -21.894,61.101c-0.102,0.966 -0.15,1.935 -0.203,2.954c-0.101,1.932 -0.153,3.867 -0.153,5.803c-0,2.02 0.049,4.041 0.144,6.015c0.006,0.134 0.006,0.265 0.003,0.395c-1.156,35.717 -12.452,68.794 -31.207,96.544c-6.567,9.675 -14.002,18.739 -22.25,26.987c-2.699,2.751 -5.5,5.346 -8.401,7.892c-32.333,28.719 -74.901,46.08 -121.592,46.08c-97.827,0 -177.718,-76.477 -183.244,-172.914c-0.147,-2.601 1.971,-4.788 4.579,-4.788l53.682,0c2.399,0 4.338,1.864 4.534,4.253c5.137,62.044 57.122,110.772 120.449,110.772c40.682,-0 76.683,-20.113 98.578,-50.918c13.134,-18.484 21.179,-40.786 22.198,-64.92c0.052,-1.681 0.101,-3.362 0.101,-5.042c-0,-1.831 -0.049,-3.666 -0.15,-5.5c0.15,-4.377 0.408,-8.757 0.865,-13.033c3.055,-31.06 13.848,-59.828 30.397,-84.422c6.518,-9.622 13.953,-18.637 22.149,-26.885c3.107,-3.156 6.364,-6.159 9.726,-9.064c32.228,-28.005 74.34,-45.01 120.368,-45.01c73.099,0 136.198,42.706 165.668,104.495c0.969,2.031 0.271,4.482 -1.596,5.745" style="fill:#250e4a;fill-rule:nonzero;"/><path d="M368.247,5.172l-0.294,184.433c-0.003,1.501 -0.754,2.888 -1.991,3.734c-10.657,7.259 -20.628,15.461 -29.787,24.476c-8.042,7.84 -15.429,16.346 -22.198,25.357c-0.029,0.04 -0.059,0.079 -0.088,0.118c-2.631,3.561 -8.264,1.756 -8.264,-2.673l-0,-235.451c-0,-2.523 2.043,-4.566 4.566,-4.566l53.493,-0c2.523,-0 4.566,2.049 4.563,4.572" style="fill:#8f7ac6;fill-rule:nonzero;"/></g></svg>